<mxfile host="app.diagrams.net" modified="2021-07-21T15:41:42.447Z" agent="5.0 (Macintosh; Intel Mac OS X 10_15_6) AppleWebKit/537.36 (KHTML, like Gecko) Chrome/91.0.4472.114 Safari/537.36" etag="peZnb872kvieDDHFV3Pd" version="14.8.6" type="github">
  <diagram id="dn-KX7Rt7DW11E0K5ElT" name="Page-1">
    <mxGraphModel dx="1961" dy="500" grid="1" gridSize="10" guides="1" tooltips="1" connect="1" arrows="1" fold="1" page="1" pageScale="1" pageWidth="827" pageHeight="1169" math="0" shadow="0">
      <root>
        <mxCell id="0" />
        <mxCell id="1" parent="0" />
        <mxCell id="HImTkjeCyv4W1WpoKnVU-8" value="" style="edgeStyle=orthogonalEdgeStyle;rounded=0;orthogonalLoop=1;jettySize=auto;html=1;entryX=0;entryY=0.5;entryDx=0;entryDy=0;" edge="1" parent="1" source="HImTkjeCyv4W1WpoKnVU-1" target="HImTkjeCyv4W1WpoKnVU-6">
          <mxGeometry relative="1" as="geometry" />
        </mxCell>
        <mxCell id="HImTkjeCyv4W1WpoKnVU-10" value="" style="edgeStyle=orthogonalEdgeStyle;rounded=0;orthogonalLoop=1;jettySize=auto;html=1;entryX=1;entryY=0.5;entryDx=0;entryDy=0;exitX=0.392;exitY=1.06;exitDx=0;exitDy=0;exitPerimeter=0;" edge="1" parent="1" source="HImTkjeCyv4W1WpoKnVU-35" target="HImTkjeCyv4W1WpoKnVU-4">
          <mxGeometry relative="1" as="geometry">
            <Array as="points">
              <mxPoint x="377" y="390" />
            </Array>
          </mxGeometry>
        </mxCell>
        <mxCell id="HImTkjeCyv4W1WpoKnVU-12" value="" style="edgeStyle=orthogonalEdgeStyle;rounded=0;orthogonalLoop=1;jettySize=auto;html=1;entryX=1;entryY=0.5;entryDx=0;entryDy=0;exitX=0.5;exitY=1;exitDx=0;exitDy=0;" edge="1" parent="1" source="HImTkjeCyv4W1WpoKnVU-35" target="HImTkjeCyv4W1WpoKnVU-3">
          <mxGeometry relative="1" as="geometry">
            <mxPoint x="310" y="288" as="targetPoint" />
            <Array as="points">
              <mxPoint x="360" y="110" />
              <mxPoint x="360" y="280" />
            </Array>
          </mxGeometry>
        </mxCell>
        <mxCell id="HImTkjeCyv4W1WpoKnVU-13" value="" style="edgeStyle=orthogonalEdgeStyle;rounded=0;orthogonalLoop=1;jettySize=auto;html=1;entryX=1;entryY=0.5;entryDx=0;entryDy=0;exitX=0;exitY=0.5;exitDx=0;exitDy=0;" edge="1" parent="1" source="HImTkjeCyv4W1WpoKnVU-35" target="HImTkjeCyv4W1WpoKnVU-2">
          <mxGeometry relative="1" as="geometry">
            <mxPoint x="390" y="140" as="sourcePoint" />
            <mxPoint x="310" y="80" as="targetPoint" />
          </mxGeometry>
        </mxCell>
        <mxCell id="HImTkjeCyv4W1WpoKnVU-1" value="map集中管理对象" style="rounded=0;whiteSpace=wrap;html=1;" vertex="1" parent="1">
          <mxGeometry x="390" y="170" width="120" height="60" as="geometry" />
        </mxCell>
        <mxCell id="HImTkjeCyv4W1WpoKnVU-27" value="" style="edgeStyle=orthogonalEdgeStyle;rounded=0;orthogonalLoop=1;jettySize=auto;html=1;" edge="1" parent="1" source="HImTkjeCyv4W1WpoKnVU-2" target="HImTkjeCyv4W1WpoKnVU-26">
          <mxGeometry relative="1" as="geometry" />
        </mxCell>
        <mxCell id="HImTkjeCyv4W1WpoKnVU-2" value="tree" style="rounded=0;whiteSpace=wrap;html=1;" vertex="1" parent="1">
          <mxGeometry x="170" y="150" width="120" height="60" as="geometry" />
        </mxCell>
        <mxCell id="HImTkjeCyv4W1WpoKnVU-3" value="tree2" style="rounded=0;whiteSpace=wrap;html=1;" vertex="1" parent="1">
          <mxGeometry x="170" y="250" width="120" height="60" as="geometry" />
        </mxCell>
        <mxCell id="HImTkjeCyv4W1WpoKnVU-4" value="tree3" style="rounded=0;whiteSpace=wrap;html=1;" vertex="1" parent="1">
          <mxGeometry x="170" y="360" width="120" height="60" as="geometry" />
        </mxCell>
        <mxCell id="HImTkjeCyv4W1WpoKnVU-15" value="" style="edgeStyle=orthogonalEdgeStyle;rounded=0;orthogonalLoop=1;jettySize=auto;html=1;" edge="1" parent="1" source="HImTkjeCyv4W1WpoKnVU-6" target="HImTkjeCyv4W1WpoKnVU-14">
          <mxGeometry relative="1" as="geometry" />
        </mxCell>
        <mxCell id="HImTkjeCyv4W1WpoKnVU-6" value="list" style="rounded=0;whiteSpace=wrap;html=1;" vertex="1" parent="1">
          <mxGeometry x="600" y="160" width="120" height="60" as="geometry" />
        </mxCell>
        <mxCell id="HImTkjeCyv4W1WpoKnVU-7" value="list直接根据map判断，有没有选中" style="text;html=1;align=center;verticalAlign=middle;resizable=0;points=[];autosize=1;strokeColor=none;" vertex="1" parent="1">
          <mxGeometry x="580" y="110" width="200" height="20" as="geometry" />
        </mxCell>
        <mxCell id="HImTkjeCyv4W1WpoKnVU-17" value="" style="edgeStyle=orthogonalEdgeStyle;rounded=0;orthogonalLoop=1;jettySize=auto;html=1;" edge="1" parent="1" source="HImTkjeCyv4W1WpoKnVU-14">
          <mxGeometry relative="1" as="geometry">
            <mxPoint x="620" y="320" as="targetPoint" />
          </mxGeometry>
        </mxCell>
        <mxCell id="HImTkjeCyv4W1WpoKnVU-22" value="" style="edgeStyle=orthogonalEdgeStyle;rounded=0;orthogonalLoop=1;jettySize=auto;html=1;entryX=1;entryY=0.5;entryDx=0;entryDy=0;" edge="1" parent="1" source="HImTkjeCyv4W1WpoKnVU-14" target="HImTkjeCyv4W1WpoKnVU-1">
          <mxGeometry relative="1" as="geometry">
            <mxPoint x="720" y="270" as="targetPoint" />
          </mxGeometry>
        </mxCell>
        <mxCell id="HImTkjeCyv4W1WpoKnVU-14" value="勾选" style="text;html=1;align=center;verticalAlign=middle;resizable=0;points=[];autosize=1;strokeColor=none;" vertex="1" parent="1">
          <mxGeometry x="600" y="260" width="40" height="20" as="geometry" />
        </mxCell>
        <mxCell id="HImTkjeCyv4W1WpoKnVU-19" value="" style="edgeStyle=orthogonalEdgeStyle;rounded=0;orthogonalLoop=1;jettySize=auto;html=1;entryX=0.5;entryY=1;entryDx=0;entryDy=0;" edge="1" parent="1" target="HImTkjeCyv4W1WpoKnVU-1">
          <mxGeometry relative="1" as="geometry">
            <mxPoint x="620" y="320" as="sourcePoint" />
            <mxPoint x="620" y="420" as="targetPoint" />
          </mxGeometry>
        </mxCell>
        <mxCell id="HImTkjeCyv4W1WpoKnVU-20" value="不存在 去map增加" style="text;html=1;align=center;verticalAlign=middle;resizable=0;points=[];autosize=1;strokeColor=none;" vertex="1" parent="1">
          <mxGeometry x="470" y="330" width="110" height="20" as="geometry" />
        </mxCell>
        <mxCell id="HImTkjeCyv4W1WpoKnVU-23" value="已存在，去map删除" style="text;html=1;align=center;verticalAlign=middle;resizable=0;points=[];autosize=1;strokeColor=none;" vertex="1" parent="1">
          <mxGeometry x="480" y="270" width="120" height="20" as="geometry" />
        </mxCell>
        <mxCell id="HImTkjeCyv4W1WpoKnVU-26" value="NodeCache" style="rounded=0;whiteSpace=wrap;html=1;" vertex="1" parent="1">
          <mxGeometry x="-50" y="150" width="120" height="60" as="geometry" />
        </mxCell>
        <mxCell id="HImTkjeCyv4W1WpoKnVU-28" value="点击复选框&lt;br&gt;先从缓存中检查&lt;br&gt;差量去map里删&lt;br&gt;增量加进map&lt;br&gt;把当前值替换缓存&lt;br&gt;checkeys使用map的key" style="text;html=1;align=center;verticalAlign=middle;resizable=0;points=[];autosize=1;strokeColor=none;" vertex="1" parent="1">
          <mxGeometry x="55" y="45" width="140" height="90" as="geometry" />
        </mxCell>
        <mxCell id="HImTkjeCyv4W1WpoKnVU-33" style="edgeStyle=orthogonalEdgeStyle;rounded=0;orthogonalLoop=1;jettySize=auto;html=1;entryX=0.5;entryY=0;entryDx=0;entryDy=0;exitX=0.5;exitY=0;exitDx=0;exitDy=0;" edge="1" parent="1" source="HImTkjeCyv4W1WpoKnVU-26" target="HImTkjeCyv4W1WpoKnVU-35">
          <mxGeometry relative="1" as="geometry">
            <Array as="points">
              <mxPoint x="10" y="30" />
              <mxPoint x="450" y="30" />
              <mxPoint x="450" y="60" />
            </Array>
          </mxGeometry>
        </mxCell>
        <mxCell id="HImTkjeCyv4W1WpoKnVU-29" value="selectNode缓存" style="text;html=1;align=center;verticalAlign=middle;resizable=0;points=[];autosize=1;strokeColor=none;" vertex="1" parent="1">
          <mxGeometry x="-50" y="100" width="100" height="20" as="geometry" />
        </mxCell>
        <mxCell id="HImTkjeCyv4W1WpoKnVU-30" value="NodeCache" style="rounded=0;whiteSpace=wrap;html=1;" vertex="1" parent="1">
          <mxGeometry x="-50" y="250" width="120" height="60" as="geometry" />
        </mxCell>
        <mxCell id="HImTkjeCyv4W1WpoKnVU-31" value="NodeCache" style="rounded=0;whiteSpace=wrap;html=1;" vertex="1" parent="1">
          <mxGeometry x="-50" y="360" width="120" height="60" as="geometry" />
        </mxCell>
        <mxCell id="HImTkjeCyv4W1WpoKnVU-34" value="顺序问题" style="text;html=1;align=center;verticalAlign=middle;resizable=0;points=[];autosize=1;strokeColor=none;" vertex="1" parent="1">
          <mxGeometry x="470" y="20" width="60" height="20" as="geometry" />
        </mxCell>
        <mxCell id="HImTkjeCyv4W1WpoKnVU-36" value="" style="edgeStyle=orthogonalEdgeStyle;rounded=0;orthogonalLoop=1;jettySize=auto;html=1;" edge="1" parent="1" source="HImTkjeCyv4W1WpoKnVU-35" target="HImTkjeCyv4W1WpoKnVU-1">
          <mxGeometry relative="1" as="geometry" />
        </mxCell>
        <mxCell id="HImTkjeCyv4W1WpoKnVU-35" value="list作为选中的" style="whiteSpace=wrap;html=1;" vertex="1" parent="1">
          <mxGeometry x="360" y="40" width="120" height="50" as="geometry" />
        </mxCell>
        <mxCell id="HImTkjeCyv4W1WpoKnVU-37" value="实时转换map" style="text;html=1;align=center;verticalAlign=middle;resizable=0;points=[];autosize=1;strokeColor=none;" vertex="1" parent="1">
          <mxGeometry x="415" y="120" width="90" height="20" as="geometry" />
        </mxCell>
      </root>
    </mxGraphModel>
  </diagram>
</mxfile>
